<?xml version="1.0" encoding="utf-8"?>
<?xml-stylesheet type="text/xsl" href="rss1.xsl"?>
<rss version="2.0" xmlns:atom="http://www.w3.org/2005/Atom" xmlns:content="http://purl.org/rss/1.0/modules/content/" xmlns:dc="http://purl.org/dc/elements/1.1/" xmlns:media="http://search.yahoo.com/mrss/">
<channel>
 <title>Getty</title>
 <link>http://www.gettyimg.com/</link>
 <atom:link href="http://www.gettyimg.com/" rel="self" type="application/rss+xml" />

 
                <item>
                <title><![CDATA[【HD Live Performances】UPSCALE - Girls Aloud - Love Machine (TOTP)(2k (x2 Ai) Upscale)]]></title>
                <link><![CDATA[https://sharemania.us/threads/girls-aloud-love-machine-totp-2k-x2-ai-upscale.229529/]]></link>
                <description><![CDATA[<article>
<blockquote class="messageText SelectQuoteContainer ugc baseHtml">
<img src="https://i.imgur.com/Aa7zhfL.png" class="bbCodeImage LbImage" alt="[​IMG]" data-url="https://i.imgur.com/Aa7zhfL.png" style=""><br>
<img src="https://i.imgur.com/nUtC4g6.jpg" class="bbCodeImage LbImage" alt="[​IMG]" data-url="https://i.imgur.com/nUtC4g6.jpg" style=""><br>
<img src="https://i.imgur.com/9XS4XMB.jpg" class="bbCodeImage LbImage" alt="[​IMG]" data-url="https://i.imgur.com/9XS4XMB.jpg" style=""><br>
<img src="https://i.imgur.com/m1Cc3wR.jpg" class="bbCodeImage LbImage" alt="[​IMG]" data-url="https://i.imgur.com/m1Cc3wR.jpg" style=""><br>
<br>
<div class="ToggleTriggerAnchor bbCodeSpoilerContainer">
<button type="button" class="button bbCodeSpoilerButton ToggleTrigger Tooltip JsOnly" data-target="> .SpoilerTarget"><span>Spoiler: <span class="SpoilerTitle">MediaInfo</span></span></button>
<div class="SpoilerTarget bbCodeSpoilerText">IMG]image[/IMG]<br>
Format : MPEG-4<br>
Format profile : Base Media<br>
Codec ID : isom (isom/iso2/mp41)<br>
File size : 463 MiB<br>
Duration : 3 min 11 s<br>
Overall bit rate : 20.2 Mb/s<br>
minor_version : 512<br>
major_brand : isom<br>
compatible_brands : isomiso2avc1mp41<br>
videoai : Enhanced using prob-3 with recover details at 18, dehalo at 21, reduce noise at 5, sharpen at 23, revert compression at 30, and anti-alias/deblur at -10. Changed resolution to 2880x2304<br>
encoder : Lavf59.34.101<br>
Video<br>
ID : 1<br>
Format : HEVC<br>
Format/Info : High Efficiency Video Coding<br>
Format profile : Main@L5@Main<br>
Codec ID : hev1<br>
Codec ID/Info : High Efficiency Video Coding<br>
Duration : 3 min 11 s<br>
Source duration : 3 min 11 s<br>
Bit rate : 19.2 Mb/s<br>
Maximum bit rate : 20.0 Mb/s<br>
Width : 2 880 pixels<br>
Height : 2 304 pixels<br>
Display aspect ratio : 16:9<br>
Frame rate mode : Constant<br>
Frame rate : 25.000 FPS<br>
Color space : YUV<br>
Chroma subsampling : 4:2:0<br>
Bit depth : 8 bits<br>
Scan type : Progressive<br>
Bits/(Pixel*Frame) : 0.116<br>
Stream size : 439 MiB (95%)<br>
Source stream size : 457 MiB (99%)<br>
Color range : Limited<br>
Matrix coefficients : BT.470 System B/G<br>
Codec configuration box : hvcC<br>
Audio<br>
ID : 2<br>
Format : AAC LC<br>
Format/Info : Advanced Audio Codec Low Complexity<br>
Codec ID : mp4a-40-2<br>
Duration : 3 min 7 s<br>
Bit rate mode : Constant<br>
Bit rate : 258 kb/s<br>
Channel(s) : 2 channels<br>
Channel layout : L R<br>
Sampling rate : 48.0 kHz<br>
Frame rate : 46.875 FPS (1024 SPF)<br>
Compression mode : Lossy<br>
Stream size : 5.75 MiB (1%)<br>
Default : Yes<br>
Alternate group : 1</div>
</div><br>
Upscaled from a DVD source that struggled to capture all the dancing and bright light changes of this great performance without showing considerable compression artifact so please don't expect a perfectly clean upscaled image throughout. Done for fun to celebrate the girls anniversary....enjoy!<br>
<br>
<br>
<div class="bbCodeBlock bbCodeVfcHH HiddenContent">
<div class="attribution type">Hidden Content:</div>
<blockquote>You must reply before you can see the hidden data contained here.</blockquote>
</div>
<div class="messageTextEndMarker">&nbsp;</div>
</blockquote>
</article>]]></description>
                <author><![CDATA[Johnboy]]></author>
                </item>

                </channel></rss>